inDegrees=no
num_controls=7
num_derivatives=13
num_iterations=106
num_multipliers=7
num_parameters=0
num_slacks=7
num_states=26
objective=4.250366
objective_accelerations=0.570490
objective_balance=0.036194
objective_effort=0.643565
objective_height=2.926912
objective_ligament=0.073205
solver_duration=1092.209169
status=Solve_Succeeded
success=true
DataType=double
version=3
OpenSimVersion=4.4-2022-07-23-0e9fedc
endheader
time	/jointset/ground_pelvis/pelvis_tilt/value	/jointset/ground_pelvis/pelvis_tx/value	/jointset/ground_pelvis/pelvis_ty/value	/jointset/hip_l/hip_flexion_l/value	/jointset/hip_l/hip_adduction_l/value	/jointset/hip_l/hip_rotation_l/value	/jointset/back/lumbar_extension/value	/jointset/patellofemoral_l/patellar_flexion_l/value	/jointset/knee_l/knee_flexion_l/value	/jointset/knee_l/knee_adduction_l/value	/jointset/knee_l/knee_rotation_l/value	/jointset/ankle_l/ankle_angle_l/value	/jointset/subtalar_l/subtalar_angle_l/value	/jointset/ground_pelvis/pelvis_tilt/speed	/jointset/ground_pelvis/pelvis_tx/speed	/jointset/ground_pelvis/pelvis_ty/speed	/jointset/hip_l/hip_flexion_l/speed	/jointset/hip_l/hip_adduction_l/speed	/jointset/hip_l/hip_rotation_l/speed	/jointset/back/lumbar_extension/speed	/jointset/patellofemoral_l/patellar_flexion_l/speed	/jointset/knee_l/knee_flexion_l/speed	/jointset/knee_l/knee_adduction_l/speed	/jointset/knee_l/knee_rotation_l/speed	/jointset/ankle_l/ankle_angle_l/speed	/jointset/subtalar_l/subtalar_angle_l/speed	/forceset/tau_hip_flexion_l	/forceset/tau_hip_adduction_l	/forceset/tau_hip_rotation_l	/forceset/tau_knee_flexion_l	/forceset/tau_ankle_angle_l	/forceset/tau_subtalar_angle_l	/forceset/tau_lumbar_extension	lambda_cid13_p0	lambda_cid13_p1	lambda_cid13_p2	lambda_cid13_p3	lambda_cid13_p4	lambda_cid13_p5	lambda_cid14_p0	/jointset/ground_pelvis/pelvis_tilt/accel	/jointset/ground_pelvis/pelvis_tx/accel	/jointset/ground_pelvis/pelvis_ty/accel	/jointset/hip_l/hip_flexion_l/accel	/jointset/hip_l/hip_adduction_l/accel	/jointset/hip_l/hip_rotation_l/accel	/jointset/back/lumbar_extension/accel	/jointset/patellofemoral_l/patellar_flexion_l/accel	/jointset/knee_l/knee_flexion_l/accel	/jointset/knee_l/knee_adduction_l/accel	/jointset/knee_l/knee_rotation_l/accel	/jointset/ankle_l/ankle_angle_l/accel	/jointset/subtalar_l/subtalar_angle_l/accel	gamma_cid13_p0	gamma_cid13_p1	gamma_cid13_p2	gamma_cid13_p3	gamma_cid13_p4	gamma_cid13_p5	gamma_cid14_p0
0	-0.03682185992525077	0.05667720946214332	0.9203416070138469	0.3085811930696054	-0.2956402153530165	-0.3016019361413118	-0.3879500408040475	0.2499276582270948	0.249927658227084	-0.1745328884329067	-0.174527724372075	-0.0008036543073733089	0.0004378055201566495	0	0	0	0	0	0	0	0	0	0	0	0	0	0.08366523192429642	-0.03819039197593042	-0.01819191359280027	-0.2293825058938956	0.1617494872617431	-0.02340896899479511	-0.01690107218144955	9.512897835492852	5.610264092908985	1.953036793962823	22.93755794256768	-595.9460916293208	-63.36924292174832	-23.19678094155551	-1.737643569482153	-2.705688767538886	-1.338290263230876	13.82316944929239	-0.9087229907198352	4.850982304048719	-8.163969940268446	14.05250134563098	14.05250134563096	2.636032879787179	-0.06195231803022341	2.969255251130074	0.02508554576532386	2.588537991363116e-08	4.348307417489303e-07	6.336695924770956e-08	-1.688224799389502e-08	2.954571517300976e-07	4.600687885347051e-08	3.596719055790678e-08
0.01	-0.03690331561154405	0.05654474388047987	0.9202761830887789	0.3092548910582653	-0.2956861329323451	-0.3013582630307177	-0.3883568988541002	0.250617328254818	0.2506173282547829	-0.1744067259810141	-0.1745259448284172	-0.0006570437014971933	0.0004379066355772888	-0.01622406432817813	-0.02623225100376037	-0.01303567811019957	0.1339597212698144	-0.009148679282880259	0.04847077740479832	-0.08070871268205917	0.1373151618395208	0.137315161839531	0.02507498483293575	0.0003259923284205771	0.02936575123799505	7.390336929900823e-05	0.07986541776269519	-0.05161209538348482	-0.0181388924295492	-0.2309977788069786	0.1635458766027898	-0.01012291580085337	-0.01184605067441693	10.46624076150938	-0.1594174608151862	2.681700638776548	19.28977060166435	-599.7183921199343	-75.18923310169801	-23.20449653564626	-1.554743375602437	-2.542866844760836	-1.278781458011072	13.06538085942302	-0.9128002977817472	4.80556212987856	-7.924887332319798	13.47818985460865	13.47818985460975	2.419688644524728	0.0753827954376506	2.926792293206463	0.006518026425062309	-3.768076486426155e-08	3.99664824946429e-07	2.360782767875758e-07	4.42262495976984e-08	4.300339046867478e-08	-8.747791012000099e-08	1.578059333047621e-08
0.02	-0.03714500304334496	0.05615778107318484	0.9200818874079905	0.3112447877383422	-0.2958225092846467	-0.3006377948118391	-0.3895509571110036	0.2526615831512014	0.2526615831512037	-0.1740345222088613	-0.174521803804096	-0.0002154641366263917	0.0004403418434734517	-0.03204634910099626	-0.05089944512631494	-0.02577435114410095	0.2632397382835024	-0.01809175459415596	0.09535902165692793	-0.1574400413698787	0.2709169737388862	0.2709169737388908	0.0492082640449798	0.0004722961432276805	0.05899379179887915	0.000466818495105922	0.07606560360112015	-0.06503379879103625	-0.0180858712659753	-0.2326130517200787	0.1653422659438469	0.003163137393091017	-0.00679102916737684	11.53086393748228	-5.945073185945915	3.408899616156507	15.46449226290468	-601.8346489436332	-86.86872048292273	-23.22714259266059	-1.657287658409831	-2.39267739129803	-1.27888924797125	12.88722859806717	-0.8676021963989722	4.534475673514966	-7.368493141420315	13.30983135759998	13.30983135759679	2.447691755608764	-0.09789002075298447	3.021713115707535	0.08888789706672928	-1.012469096421543e-07	3.644989081439277e-07	4.08789594327442e-07	1.053347471892918e-07	-2.094503707927481e-07	-2.209626990934725e-07	-4.406003896954354e-09
0.03	-0.03754297539282474	0.05553113795837108	0.9197611554053334	0.3145054328526564	-0.2960468054045655	-0.2994574872689362	-0.3914926619386627	0.2560232846061228	0.2560232846061098	-0.1734253026416718	-0.1745177891701876	0.0005224242790198122	0.0004483564215043499	-0.04744874125541595	-0.07425178884878587	-0.03836814583461838	0.3881917944528757	-0.02669630170311364	0.1404467055251451	-0.2303059046815181	0.4007827361926401	0.4007827361926035	0.0724822780312883	0.0003466092394068847	0.08849957069235585	0.001181729694731186	0.06847241173644507	-0.0579112497660173	-0.01723627971946972	-0.2272036643829809	0.1615177726223502	0.0006908949578411427	6.374285547081145e-05	10.19353162978055	-4.705357957320102	3.289084130107064	15.01494519829706	-603.1187557726474	-83.19956602066058	-23.26356511968597	-1.466818904401775	-2.279883201595803	-1.249081956808099	12.1945539977671	-0.8463245875959696	4.457503586204328	-7.156380003432476	12.72886249448662	12.72886249448242	2.244357024635866	0.03254669137786911	2.902367632596171	0.06953296048297841	-1.412807158874158e-07	3.130707478320819e-07	5.279093608536819e-07	1.41800425228278e-07	-3.782982514710799e-07	-3.162641950472283e-07	-2.023129035357491e-08
0.04	-0.03809199244594191	0.05467629733855715	0.9193145939803289	0.3189946705029511	-0.296355035719464	-0.2978339851188063	-0.3941451748149158	0.2606644264466138	0.2606644264466174	-0.1725879227737176	-0.1745145404620104	0.001552841954886738	0.0004648681573459609	-0.06225528982754865	-0.09653894612634886	-0.05094023561361569	0.5089582454780346	-0.03487859359014501	0.1839979431025384	-0.2996016510889827	0.5268050508553384	0.5268050508552762	0.09484032419734433	0.0003191109985729094	0.117499643842968	0.002166250057251335	0.06087921987185845	-0.05078870074102135	-0.01638668817279318	-0.2217942770458554	0.1576932793008602	-0.001781347477432326	0.006918514878384482	8.957490617096351	-3.476837254631235	3.163581436248538	14.38848016000519	-602.9130279745144	-79.39487263405954	-23.31209977802544	-1.538118941952108	-2.179640102316755	-1.274548265667234	12.05010756922432	-0.7831511520137217	4.227186415350214	-6.654469760585154	12.54114179938893	12.54114179938885	2.26449819155826	-0.07825228815566379	2.92057196713427	0.1428097296455688	-1.808293192763345e-07	2.613072835303527e-07	6.459241469466512e-07	1.777580038950455e-07	-5.454222995600695e-07	-4.107784066088251e-07	-3.59666528767767e-08
0.05	-0.03878671197099134	0.05360392712978387	0.9187419862896983	0.3246717379819201	-0.2967427986647011	-0.2957837339247452	-0.3974726230111827	0.2665471447888457	0.2665471447888326	-0.1715314126632932	-0.1745120567245603	0.0028707552460144	0.000492769671662274	-0.07659556195278913	-0.1177545258353866	-0.06360937068019208	0.6257708199005324	-0.04259237992577246	0.2257655858482007	-0.3653381283507082	0.6490953758979684	0.6490953758979079	0.1162869559244069	0.0001829760359396979	0.1459851335017494	0.003465497712931728	0.05381136703198414	-0.04945684006702969	-0.01557012292107602	-0.2179881892563127	0.1537663455233214	0.0006038319579251428	0.0131946355962109	7.883190676267258	-4.324338731265903	3.298376855987057	13.58350519639119	-602.4673556544226	-80.03578364654513	-23.37060338519827	-1.368029446451424	-2.065395594921707	-1.267416787287125	11.3941487999997	-0.7533834804895965	4.10846121462548	-6.450757736390742	11.97649892356789	11.97649892356824	2.058646496519262	0.01960983979633852	2.797855942364215	0.131083921300714	-2.042938585250232e-07	1.604070632741869e-07	7.127704049589539e-07	1.930758745478872e-07	-6.48731300439238e-07	-4.771976770763799e-07	-5.219910130560464e-08
0.06	-0.03962204383703215	0.05232482538597489	0.9180418231163755	0.3314963944893697	-0.2972052776945234	-0.293324424701139	-0.4014409401855508	0.2736334705948641	0.2736334705948663	-0.1702656560689516	-0.1745107535487136	0.004470587129152686	0.0005351839900895884	-0.09037775802363307	-0.1378852531334916	-0.07645133215202761	0.7384760511725268	-0.04982181050749519	0.2658095490119182	-0.4277754467093725	0.7675265436153121	0.7675265436152544	0.1366896209810197	8.299867785411153e-05	0.1738833622450918	0.005068810879463499	0.04674351419222091	-0.04812497939305416	-0.01475355766919114	-0.2141821014667465	0.1498394117457857	0.002989011393264898	0.019470756314125	6.896578942615957	-5.184280641075631	3.43182787755333	12.61288942135307	-600.7359455604807	-80.56266978710417	-23.43661887331369	-1.426503731072475	-1.962669620130506	-1.309113546719065	11.22863893912363	-0.6862800012327782	3.882450498961306	-5.994637979972732	11.76931033433175	11.76931033433188	2.055704857468307	-0.07102076724613007	2.803119784046133	0.2036228318157258	-2.270811740204391e-07	5.743792697783435e-08	7.774621986310182e-07	2.075247048633004e-07	-7.493533519622034e-07	-5.424340026557646e-07	-6.845247966730104e-08
0.07000000000000001	-0.04059299116966032	0.05084995283448289	0.9172120370248867	0.3394287173996963	-0.297737403520275	-0.2904739508537917	-0.4060164316622825	0.2818856916099415	0.2818856916099475	-0.1688006318345868	-0.1745109673064229	0.006346842162573052	0.000595519514508632	-0.1037159718054773	-0.1568950279071263	-0.08955591885381134	0.8473047003403393	-0.05650955810411526	0.3040041263787708	-0.4867703964462609	0.8822866682158813	0.8822866682158484	0.1561398641454068	-0.0001040092651634229	0.2012839987634556	0.00706718340414711	0.03959972893510942	-0.04566393693204151	-0.01399299203617021	-0.2113651276598079	0.1474545188349078	0.003994301607963767	0.0257758833270649	6.34137312640395	-5.518132935995845	3.47873322543254	11.42901621119362	-599.1828751555762	-79.94518623239006	-23.50734185014613	-1.273120560120484	-1.840955337998432	-1.318787228472307	10.60738548713172	-0.6460709406186471	3.745681592617179	-5.769055641381794	11.23472873284745	11.23472873285122	1.863468247837111	0.01085338037049238	2.695983201060344	0.2081808307723166	-2.391621815576027e-07	-9.463070100644052e-08	8.01782032771502e-07	2.050926844231476e-07	-7.988544774435592e-07	-5.873714651625961e-07	-8.698304521551277e-08
0.08	-0.0416944487117962	0.04919081774885048	0.9162496738670675	0.3484288083179946	-0.2983336165823383	-0.28724998718536	-0.4111652990705535	0.2912665869130114	0.2912665869130224	-0.1671463483281891	-0.1745123723058959	0.008494593084242653	0.0006778860377699297	-0.1164797999224699	-0.1747377599615747	-0.1029667454181196	0.952029652769027	-0.06263925777041691	0.3405075132284286	-0.542450633016506	0.993261401213567	0.9932614012135603	0.1745414753863148	-0.0001552496801721381	0.2281825398949686	0.009475010647931858	0.03245594367797711	-0.04320289447104086	-0.01323242640314454	-0.2085481538528801	0.1450696259240234	0.004999591822648041	0.03208101033999177	5.860598716085995	-5.861682601517826	3.523375457330467	10.09373097888573	-596.5482370414072	-79.22800244627845	-23.57970467876786	-1.311626598101823	-1.729261076293497	-1.370361519223982	10.4078995912987	-0.5746704151690893	3.544212395522464	-5.331695346643897	11.01223201375506	11.01223201375548	1.845978472772494	-0.04386726164428913	2.70270070667566	0.2855137756358527	-2.505524595490726e-07	-2.498670381318715e-07	8.234972243615612e-07	2.015715768374744e-07	-8.450574786641659e-07	-6.309993236002306e-07	-1.056605260660803e-07
0.09	-0.04292126691636731	0.04735899280488309	0.915151387949697	0.3584569484180014	-0.2989882571321287	-0.2836703269582667	-0.4168540280671078	0.301739097120831	0.3017390971208289	-0.1653129762043104	-0.1745146306098065	0.0109088338408607	0.0007864784146131932	-0.1287891563498501	-0.1914401709419154	-0.1167571546737453	1.052934867813129	-0.06819268908483922	0.3751356505728077	-0.5947703343338722	1.100609842354441	1.100609842354377	0.1919484757960311	-0.0002783149839145102	0.2545596951704436	0.01230783590553587	0.02510881171493127	-0.04096007427349637	-0.01244966866618661	-0.2059792804340866	0.1422727540716745	0.006323479078830104	0.03840076604724201	5.23511486014148	-6.315098087536476	3.581919484478356	9.060899226676618	-594.1480736637312	-78.73914713783331	-23.65039412391415	-1.176383003548023	-1.612632168680632	-1.393557879622522	9.832293573922522	-0.5313306513154303	3.378643345497346	-5.103382729695648	10.50155189904162	10.50155189903287	1.660427194989553	0.006339533600199429	2.589321429232057	0.2917701606028906	-2.567130387279737e-07	-4.182446224503338e-07	8.315959589786614e-07	1.884031415759297e-07	-8.599586637669397e-07	-6.670016525734688e-07	-1.249563127069975e-07
